Coordinates
version=1
nRows=13
nColumns=34
inDegrees=yes

Units are S.I. units (second, meters, Newtons, ...)
If the header above contains a line with 'inDegrees', this indicates whether rotational values are in degrees (yes) or radians (no).

endheader
time	pelvis_tilt	pelvis_list	pelvis_rotation	pelvis_tx	pelvis_ty	pelvis_tz	hip_flexion_r	hip_adduction_r	hip_rotation_r	knee_angle_r	ankle_angle_r	subtalar_angle_r	mtp_angle_r	hip_flexion_l	hip_adduction_l	hip_rotation_l	knee_angle_l	ankle_angle_l	subtalar_angle_l	mtp_angle_l	lumbar_extension	lumbar_bending	lumbar_rotation	arm_flex_r	arm_add_r	arm_rot_r	elbow_flex_r	pro_sup_r	arm_flex_l	arm_add_l	arm_rot_l	elbow_flex_l	pro_sup_l
      3.65000000	      2.18878267	     -3.76969310	     14.47546280	      1.12218406	      0.95556382	     -0.06782783	     27.38973323	      1.03714391	     -1.72048866	      3.03719233	     -1.90187027	     -9.01524641	      0.00000000	    -22.48581545	     -1.05487665	    -11.48225432	      0.00000000	     26.20196502	     23.16931157	      0.00000000	     -2.62855452	      5.53520826	    -21.18226573	     -1.21963949	     -7.66070746	     -1.68565291	     17.30479280	     69.53840342	     14.56080808	     -4.57187763	     16.45179428	     38.06471762	     69.75482802
      3.66666670	      2.04604001	     -4.94915643	     14.44881263	      1.14851687	      0.94858749	     -0.06668200	     28.08709670	      2.76836138	     -2.48299144	      2.62016427	     -2.25649234	     -8.68774567	      0.00000000	    -24.02024301	     -2.56731597	    -11.91769009	      0.00000000	     27.62905065	     22.78825541	      0.00000000	     -1.87589283	      6.96805040	    -21.65294043	     -1.85437342	     -8.08291217	     -1.93910344	     16.69992674	     69.44950311	     15.24277122	     -4.26349855	     16.45536532	     38.74104405	     69.69687820
      3.68333330	      2.56973257	     -6.19134485	     14.66570004	      1.17317159	      0.94465975	     -0.06613989	     28.06183607	      4.60360615	     -3.92922379	      3.30419103	     -2.24499879	     -7.96010776	      0.00000000	    -26.09605876	     -4.42064493	    -12.67322894	      0.00000000	     27.98524158	     23.64527305	      0.00000000	     -2.00152955	      8.75575116	    -22.43611090	     -1.85589402	     -8.27130440	     -3.20159550	     15.27448587	     68.96160955	     15.69366363	     -4.25507979	     16.16667698	     40.10084990	     69.36962361
      3.70000000	      2.53771638	     -7.41856759	     14.62028703	      1.20038973	      0.94161352	     -0.06461959	     29.03204072	      6.35358867	     -4.66218859	      5.80436923	     -2.27040807	     -8.94250345	      0.00000000	    -27.54263839	     -6.07632473	    -12.75385494	      0.00000000	     27.56053161	     23.44918548	      0.00000000	     -1.49072085	     10.32996927	    -22.77442545	     -2.37760095	     -8.66090359	     -3.38357023	     14.81929008	     68.89313008	     16.16238199	     -4.03196371	     16.07075223	     40.40691585	     69.33514761
      3.71666670	      2.44362148	     -8.71330369	     14.54549458	      1.22836368	      0.93952146	     -0.06350681	     29.88120928	      8.27963308	     -4.11943007	      8.75259237	     -3.97135741	    -13.07804104	      0.00000000	    -28.92518223	     -7.80828749	    -12.54220265	      0.00000000	     26.42435913	     22.88655419	      0.00000000	     -0.73090518	     11.94030548	    -23.01118304	     -2.79723814	     -8.89570997	     -4.46962484	     13.55505540	     68.43115927	     16.15082397	     -3.53394726	     15.17170915	     40.61988715	     69.09818940
      3.73333330	      2.04871359	     -9.79251836	     14.46496769	      1.25914639	      0.93695830	     -0.06220520	     30.85669596	      9.91120981	     -4.11328151	     12.10366042	     -5.15092370	    -15.93729862	      0.00000000	    -30.00000025	     -9.25856973	    -11.69529584	      0.00000000	     24.41498770	     21.72256070	      0.00000000	      0.45756248	     13.20172491	    -23.20009283	     -3.53557216	     -9.18661277	     -5.00948788	     13.00211429	     68.17964171	     15.85689681	     -3.03242634	     14.53664320	     40.38567916	     69.02634219
      3.75000000	      1.01235710	    -10.59233634	     14.21245301	      1.29200891	      0.93419272	     -0.06076521	     32.14796774	     11.22896514	     -3.92522881	     15.39457550	     -6.62944829	    -18.54315991	      0.00000000	    -30.00000025	    -10.31789525	    -10.53993039	      0.82302774	     21.73680045	     20.11455970	      0.00000000	      2.51316527	     13.90941485	    -23.41638179	     -4.48334899	     -9.44875668	     -5.34215653	     12.53344316	     68.00341578	     14.99934285	     -2.53749479	     14.01048356	     39.78887319	     69.03618485
      3.76666670	      1.28605865	    -11.09219125	     14.42152395	      1.32409819	      0.93542701	     -0.05993033	     31.47787718	     12.50836555	     -4.04139894	     17.84514812	     -8.52030018	    -21.06996676	      0.00000000	    -30.00000025	    -11.70401771	     -9.26940074	      4.16711389	     19.23552422	     18.27732171	      0.00000000	      2.99159989	     14.50044651	    -23.40449011	     -5.18932032	     -9.40574093	     -5.54453995	     12.08758658	     67.86963416	     14.39399820	     -2.07528721	     13.51783572	     39.05813440	     69.09649815
      3.78333330	      2.30245894	    -11.06506263	     14.24756722	      1.35241634	      0.94024002	     -0.05826819	     29.48474379	     13.70783597	     -3.57346445	     19.78085912	    -10.09524967	    -23.22382309	      0.00000000	    -30.00000025	    -12.49223844	     -7.69421580	      8.68876542	     15.42476332	     15.31750497	      0.00000000	      2.16951708	     14.79230762	    -22.56851477	     -5.53379942	     -9.17983401	     -5.57130369	     11.78030995	     67.79552899	     13.88952269	     -1.72164347	     13.03313683	     38.23973714	     69.17790726
      3.80000000	      3.37864170	    -10.73139500	     13.68666512	      1.38081249	      0.94666218	     -0.05722877	     26.93027580	     14.72494930	     -2.63636257	     21.16453750	    -11.34178504	    -25.70222913	      0.00000000	    -28.90289703	    -12.72652108	     -5.77158946	     14.89544646	     10.27899067	     10.97946278	      0.00000000	      1.09280764	     14.79295121	    -21.36371737	     -5.67735650	     -8.99830338	     -5.48604001	     11.74194122	     67.72529031	     13.27111281	     -1.33789453	     12.60606591	     37.04247290	     69.37157431
      3.81666670	      3.91242704	    -10.33546421	     12.82475541	      1.40859589	      0.95430236	     -0.05497168	     24.38374027	     15.53529597	     -1.67422475	     21.64735814	    -11.43058737	    -27.05138966	      0.00000000	    -26.02632377	    -12.59912314	     -4.01649029	     22.48364398	      4.04666816	      6.11593845	      0.00000000	      0.56167383	     14.57699949	    -19.74946342	     -5.97059751	     -8.77731187	     -5.29413957	     11.58386115	     67.74209765	     12.29889879	     -0.92219470	     12.35681990	     36.22555246	     69.44736037
      3.83333330	      4.24845999	     -9.69556012	     11.92034251	      1.43657314	      0.96333089	     -0.05176519	     21.61196875	     15.99537017	     -0.57358546	     21.31224028	    -11.01243306	    -28.41390538	      0.00000000	    -22.30742956	    -12.00574856	     -2.10476443	     30.19325001	     -2.27042737	      1.36425446	      0.00000000	      0.09074672	     13.95895111	    -18.28222631	     -6.07062095	     -8.30031589	     -4.97928258	     11.63445785	     67.79882452	     11.31801545	     -0.84292171	     12.05021724	     34.99681098	     69.51995988
      3.85000000	      4.42901356	     -8.84263993	     10.85393358	      1.46526442	      0.97200570	     -0.04778430	     18.60742541	     16.16245670	      0.70502699	     20.30295534	    -10.24253429	    -29.44698692	      0.00000000	    -18.28488651	    -10.98345038	     -0.52411443	     37.09719180	     -8.58647403	     -2.73272689	      0.00000000	     -0.20355325	     13.02234986	    -16.83400710	     -6.04926126	     -7.78189152	     -4.50262175	     11.70287090	     67.91245957	     10.19270781	     -0.91013327	     11.72383208	     33.52421998	     69.60386334
